<svg width="48" height="48" viewBox="0 0 48 48" fill="none" xmlns="http://www.w3.org/2000/svg">
<path d="M7.32014 18.6626C10.6229 18.6626 15.577 19.9844 21.5233 23.9463C-1.26295 38.8053 -5.88745 18.6626 7.32014 18.6626Z" fill="#ECF0F1"/>
<path d="M25.815 17.563C26.0348 17.7827 26.2545 17.8926 26.4742 17.8926C26.2545 18.1123 26.0348 18.2222 25.815 18.2222C28.4552 21.8579 31.7579 25.8198 36.0528 30.1113C31.7579 25.8164 27.796 22.5137 24.1637 19.8735C24.1637 20.0933 24.0538 20.313 23.8341 20.5327C42.3287 49.2652 5.33939 49.2652 23.8341 20.5327C23.8341 20.313 23.7242 20.0933 23.5045 19.8735C20.2051 22.5137 16.2398 25.8164 11.9482 30.1113C16.2398 25.8164 19.5425 21.8579 22.1861 18.2222C21.9663 18.2222 21.7466 18.1123 21.5269 17.8926C21.7466 17.8926 21.9663 17.7827 22.1861 17.563C19.5425 14.2602 16.2398 10.2949 11.9482 6C16.2398 10.2949 20.2051 13.5976 23.5045 16.2412C23.7242 16.0192 23.8341 15.7984 23.8341 15.5786C24.0538 15.7984 24.1637 16.0192 24.1637 16.2412C27.796 13.5976 31.7579 10.2949 36.0528 6C31.7579 10.2949 28.4552 14.2602 25.815 17.563Z" fill="#ECF0F1"/>
<path d="M41.0069 29.4788C37.3746 29.4788 32.7501 27.8308 26.4775 23.8655C48.9341 9.33615 53.8883 29.4788 41.0069 29.4788Z" fill="#ECF0F1"/>
</svg>
