<svg width="60" height="48" viewBox="0 0 60 48" fill="none" xmlns="http://www.w3.org/2000/svg">
<g clip-path="url(#clip0_51_2)">
<path d="M0 0H56.4444C58.408 0 60 3.58172 60 8V40C60 44.4183 58.408 48 56.4444 48H3.55556C1.59188 48 0 44.4183 0 40V0Z" fill="#E9E2D5"/>
<path d="M41.6295 23.7587C41.5072 23.4645 41.3694 23.1701 41.2319 22.9026C41.0178 22.488 40.8038 22.0868 40.605 21.6855L40.5897 21.6589C38.7241 18.1145 36.721 14.5167 34.6261 10.9724L34.5343 10.8252C34.3203 10.4641 34.1062 10.0896 33.8768 9.72846C33.6169 9.30046 33.3263 8.84573 32.9135 8.41773C32.0113 7.50823 30.7727 7 29.4424 7C28.0968 7 26.8734 7.50823 25.9866 8.41773C25.5737 8.84573 25.2832 9.30046 25.0232 9.72846C24.7938 10.103 24.5798 10.4774 24.3657 10.8385L24.2892 10.9724C22.2096 14.5167 20.1912 18.1145 18.3257 21.6589L18.2645 21.7123C18.0657 22.1001 17.8517 22.5015 17.6376 22.9161C17.4999 23.1836 17.3623 23.4644 17.24 23.772C16.8883 24.6413 16.7813 25.4707 16.9189 26.3133C17.2094 28.0788 18.555 29.5767 20.4359 30.2453C21.1393 30.4995 21.8732 30.6199 22.6378 30.6199C22.8671 30.6199 23.1118 30.6065 23.3412 30.5798C24.2434 30.4862 25.1608 30.2188 26.0477 29.7774C27.1487 29.2424 28.2191 28.4531 29.3965 27.3163C30.5739 28.4398 31.6596 29.229 32.7453 29.7774C33.6475 30.2188 34.5496 30.4862 35.4518 30.5798C35.6812 30.6065 35.9258 30.6199 36.1552 30.6199C36.9198 30.6199 37.669 30.4995 38.3571 30.2453C40.238 29.5767 41.5837 28.0654 41.874 26.3133C42.0881 25.4573 41.981 24.6281 41.6295 23.7587ZM29.4424 24.9892C27.9744 23.3709 27.0417 21.8595 26.7205 20.5889C26.5829 20.0539 26.5523 19.5724 26.6288 19.1444C26.6899 18.7699 26.8429 18.4354 27.0569 18.1545C27.5616 17.5126 28.4484 17.1247 29.4424 17.1247C30.4363 17.1247 31.3232 17.5126 31.8278 18.1545C32.0572 18.4354 32.1948 18.7699 32.256 19.1444C32.3324 19.5724 32.3018 20.0673 32.1642 20.5889C31.8431 21.8595 30.895 23.3709 29.4424 24.9892ZM40.238 26.0859C40.0392 27.3163 39.0911 28.3729 37.7761 28.8413C37.1338 29.0685 36.4304 29.1487 35.7118 29.0817C35.0237 29.015 34.3508 28.8142 33.6475 28.4665C32.6688 27.9851 31.6902 27.2494 30.5739 26.1661C32.3477 24.2535 33.4487 22.5014 33.8462 20.9365C34.0297 20.2143 34.0756 19.5456 33.9686 18.9169C33.8615 18.315 33.6169 17.7801 33.2499 17.2986C32.4242 16.242 31.0021 15.6133 29.4424 15.6133C27.8827 15.6133 26.4606 16.242 25.6348 17.2986C25.2679 17.7667 25.0232 18.315 24.9162 18.9169C24.8091 19.5322 24.8397 20.2143 25.0385 20.9365C25.4514 22.5014 26.5523 24.267 28.3108 26.1796C27.1946 27.2629 26.2159 27.9984 25.2373 28.48C24.5339 28.8276 23.8611 29.0284 23.173 29.0951C22.4543 29.162 21.7509 29.0817 21.1087 28.8545C19.7936 28.3864 18.8456 27.3298 18.6468 26.0993C18.555 25.4974 18.6315 24.9222 18.8914 24.2669C18.9832 24.0261 19.1055 23.7988 19.2432 23.518C19.4419 23.1301 19.656 22.7289 19.8548 22.341L19.8854 22.2874C21.7203 18.7698 23.7235 15.1854 25.7878 11.6679L25.8642 11.534C26.0783 11.1729 26.2924 10.7985 26.5218 10.4508C26.7511 10.0762 26.9805 9.7151 27.2863 9.40746C27.8521 8.83235 28.6014 8.52473 29.4424 8.52473C30.2834 8.52473 31.0326 8.83235 31.5984 9.40746C31.9042 9.7151 32.1336 10.0762 32.363 10.4508C32.5771 10.8119 32.7911 11.1729 33.0052 11.534L33.097 11.6812C35.1766 15.1988 37.1644 18.7833 39.03 22.3009L39.0452 22.3275C39.2593 22.7154 39.4581 23.1301 39.6722 23.518C39.8098 23.7988 39.9321 24.0261 40.0239 24.2669C40.2532 24.9088 40.3297 25.484 40.238 26.0859Z" fill="#101010"/>
<path d="M14.9536 41.8377C14.5289 41.8377 14.1428 41.7617 13.7857 41.618C13.4285 41.4663 13.1197 41.2634 12.8494 40.9934C12.5791 40.7231 12.3764 40.4191 12.222 40.0646C12.0676 39.71 12 39.3217 12 38.908C12 38.486 12.0772 38.0891 12.2317 37.726C12.3861 37.3629 12.5984 37.0506 12.8784 36.772C13.1583 36.5018 13.4768 36.2823 13.8532 36.1303C14.2297 35.9783 14.6254 35.9023 15.0598 35.9023C15.4845 35.9023 15.8609 35.9783 16.1988 36.1389C16.5366 36.2909 16.8165 36.5186 17.0385 36.7974L17.0868 36.0629H18.6601V41.6771H17.0868L17.0385 40.8583C16.8165 41.1623 16.5269 41.3986 16.1602 41.576C15.7934 41.7531 15.388 41.8377 14.9536 41.8377ZM15.3494 40.4951C15.6582 40.4951 15.9285 40.4277 16.1795 40.2843C16.4208 40.1406 16.6138 39.9466 16.7586 39.7017C16.9034 39.4568 16.9709 39.1783 16.9709 38.8657C16.9709 38.5534 16.9034 38.2749 16.7586 38.03C16.6138 37.7852 16.4208 37.5909 16.1795 37.4474C15.9381 37.304 15.6582 37.2363 15.3494 37.2363C15.0405 37.2363 14.7702 37.304 14.5193 37.4474C14.278 37.5909 14.0849 37.7852 13.9401 38.03C13.7953 38.2749 13.7278 38.5534 13.7278 38.8657C13.7278 39.1783 13.7953 39.4568 13.9401 39.7017C14.0849 39.9466 14.278 40.1406 14.5193 40.2843C14.7702 40.4277 15.0405 40.4951 15.3494 40.4951ZM21.3145 34.5432C21.3145 34.7035 21.2759 34.8555 21.189 34.9821C21.1022 35.1089 20.9863 35.2101 20.8319 35.2861C20.6774 35.3621 20.5133 35.3958 20.3396 35.3958C20.1659 35.3958 20.0018 35.3621 19.8473 35.2861C19.6929 35.2101 19.5771 35.1089 19.4902 34.9821C19.4033 34.8555 19.3647 34.712 19.3647 34.5432C19.3647 34.3826 19.4033 34.2309 19.4902 34.1041C19.5771 33.9775 19.6929 33.8761 19.8473 33.8001C20.0018 33.7243 20.1659 33.6904 20.3396 33.6904C20.5133 33.6904 20.6774 33.7243 20.8319 33.8001C20.9863 33.8761 21.1022 33.9775 21.189 34.1041C21.2759 34.2309 21.3145 34.3743 21.3145 34.5432ZM19.4902 41.6771V36.0629H21.189V41.6771H19.4902ZM25.7546 37.5318V37.5489C25.6677 37.5234 25.5712 37.498 25.4843 37.4897C25.3878 37.4812 25.2913 37.4729 25.1947 37.4729C24.7218 37.4729 24.3646 37.5994 24.1137 37.8526C23.8627 38.106 23.7372 38.4606 23.7372 38.9249V41.6771H22.0384V36.0629H23.6118L23.6697 36.9155C23.8337 36.62 24.0461 36.392 24.326 36.2317C24.6059 36.0712 24.9245 35.9952 25.3009 35.9952C25.4167 35.9952 25.5326 36.0038 25.6387 36.0206C25.687 36.0292 25.7256 36.0375 25.7642 36.046V37.5318H25.7546ZM26.4302 41.6771V33.7412H28.129V36.772C28.3607 36.5018 28.6406 36.2909 28.9881 36.1303C29.3356 35.9783 29.712 35.894 30.1271 35.894C30.5518 35.894 30.9379 35.97 31.295 36.1135C31.6521 36.2655 31.961 36.468 32.2313 36.7383C32.5016 37.0083 32.7043 37.3123 32.8587 37.6669C33.0131 38.0215 33.0807 38.41 33.0807 38.8237C33.0807 39.2457 33.0035 39.6426 32.849 40.0054C32.6946 40.3686 32.4822 40.6809 32.2023 40.9597C31.9224 41.2297 31.6039 41.4491 31.2275 41.6011C30.851 41.7531 30.4553 41.8291 30.0209 41.8291C29.5962 41.8291 29.2198 41.7531 28.8819 41.5928C28.5441 41.4408 28.2642 41.2128 28.0422 40.9343L27.9939 41.6688H26.4302V41.6771ZM29.7217 40.4951C30.0306 40.4951 30.3008 40.4277 30.5518 40.2843C30.7931 40.1406 30.9861 39.9466 31.1309 39.7017C31.2757 39.4568 31.3433 39.1783 31.3433 38.8657C31.3433 38.5534 31.2757 38.2749 31.1309 38.03C30.9861 37.7852 30.7931 37.5909 30.5518 37.4474C30.3105 37.304 30.0306 37.2363 29.7217 37.2363C29.4128 37.2363 29.1425 37.304 28.8916 37.4474C28.6503 37.5909 28.4572 37.7852 28.3125 38.03C28.1677 38.2749 28.1001 38.5534 28.1001 38.8657C28.1001 39.1783 28.1677 39.4568 28.3125 39.7017C28.4572 39.9466 28.6503 40.1406 28.8916 40.2843C29.1425 40.4277 29.4128 40.4951 29.7217 40.4951ZM33.7564 41.6771V36.0629H35.3297L35.3779 36.7889C35.5614 36.5186 35.822 36.3077 36.1501 36.1472C36.4783 35.9869 36.8548 35.9109 37.2795 35.9109C37.7524 35.9109 38.1578 36.0121 38.515 36.2063C38.8721 36.4006 39.1424 36.6792 39.3354 37.0423C39.5285 37.4052 39.625 37.8274 39.625 38.3171V41.6857H37.9165V38.5029C37.9165 38.1143 37.8103 37.802 37.6076 37.5826C37.4049 37.3629 37.125 37.2449 36.7679 37.2449C36.5073 37.2449 36.2853 37.2955 36.0826 37.3969C35.8895 37.498 35.7351 37.6417 35.6192 37.8274C35.5034 38.0132 35.4455 38.224 35.4455 38.452V41.6771H33.7564ZM40.4551 41.6771V33.7412H42.154V36.772C42.3856 36.5018 42.6656 36.2909 43.0128 36.1303C43.3604 35.9783 43.737 35.894 44.1518 35.894C44.5768 35.894 44.9629 35.97 45.3199 36.1135C45.6769 36.2655 45.9859 36.468 46.2561 36.7383C46.5265 37.0083 46.7291 37.3123 46.8836 37.6669C47.0381 38.0215 47.1057 38.41 47.1057 38.8237C47.1057 39.2457 47.0283 39.6426 46.8738 40.0054C46.7196 40.3686 46.507 40.6809 46.2273 40.9597C45.9474 41.2297 45.6286 41.4491 45.2523 41.6011C44.876 41.7531 44.4801 41.8291 44.0457 41.8291C43.621 41.8291 43.2447 41.7531 42.9066 41.5928C42.5689 41.4408 42.2889 41.2128 42.0671 40.9343L42.0188 41.6688H40.4551V41.6771ZM43.7464 40.4951C44.0554 40.4951 44.3256 40.4277 44.5768 40.2843C44.8179 40.1406 45.0109 39.9466 45.1559 39.7017C45.3006 39.4568 45.3682 39.1783 45.3682 38.8657C45.3682 38.5534 45.3006 38.2749 45.1559 38.03C45.0109 37.7852 44.8179 37.5909 44.5768 37.4474C44.3354 37.304 44.0554 37.2363 43.7464 37.2363C43.4377 37.2363 43.1673 37.304 42.9164 37.4474C42.675 37.5909 42.482 37.7852 42.3373 38.03C42.1926 38.2749 42.125 38.5534 42.125 38.8657C42.125 39.1783 42.1926 39.4568 42.3373 39.7017C42.482 39.9466 42.675 40.1406 42.9164 40.2843C43.1673 40.4277 43.4377 40.4951 43.7464 40.4951Z" fill="#101010"/>
</g>
<defs>
<clipPath id="clip0_51_2">
<rect width="60" height="48" fill="white"/>
</clipPath>
</defs>
</svg>