<svg width="143" height="108" viewBox="0 0 143 108" fill="none" xmlns="http://www.w3.org/2000/svg">
    <path d="M21.7675 37.6499C31.5875 37.6499 46.3175 41.5799 63.9975 53.3599C-3.76254 97.5499 -17.5025 37.6499 21.7675 37.6499Z" fill="#303649"/>
    <path d="M76.7576 34.38C77.4109 35.0333 78.0642 35.36 78.7176 35.36C78.0642 36.0133 77.4109 36.34 76.7576 36.34C84.6076 47.15 94.4276 58.93 107.198 71.69C94.4276 58.92 82.6476 49.1 71.8476 41.25C71.8476 41.9033 71.5209 42.5567 70.8676 43.21C125.858 128.64 15.8776 128.64 70.8676 43.21C70.8676 42.5567 70.5409 41.9033 69.8876 41.25C60.0776 49.1 48.2876 58.92 35.5276 71.69C48.2876 58.92 58.1076 47.15 65.9676 36.34C65.3142 36.34 64.6609 36.0133 64.0076 35.36C64.6609 35.36 65.3142 35.0333 65.9676 34.38C58.0976 24.56 48.2776 12.77 35.5176 0C48.2776 12.77 60.0676 22.59 69.8776 30.45C70.5309 29.79 70.8576 29.1333 70.8576 28.48C71.5109 29.1333 71.8376 29.79 71.8376 30.45C82.6376 22.59 94.4176 12.77 107.188 0C94.4176 12.77 84.5976 24.56 76.7476 34.38H76.7576Z" fill="#303649"/>
    <path d="M121.928 69.8099C111.128 69.8099 97.3775 64.9099 78.7275 53.1199C145.498 9.91994 160.228 69.8099 121.928 69.8099Z" fill="#303649"/>
</svg>
