<svg width="96" height="48" viewBox="0 0 96 48" fill="none" xmlns="http://www.w3.org/2000/svg">
<g clip-path="url(#clip0_51_35)">
<path d="M0 0H90.9804C93.7525 0 96 3.58172 96 8V40C96 44.4183 93.7525 48 90.9804 48H5.01961C2.24735 48 0 44.4183 0 40V0Z" fill="#E9E2D5"/>
<path fill-rule="evenodd" clip-rule="evenodd" d="M53.5496 20.8809C54.5031 20.8809 55.0904 21.218 55.418 21.5025L55.5122 21.5842L55.5683 21.4755C55.7169 21.194 56.0137 21.0396 56.3989 21.0396H57.3418L57.3347 27.5938C57.3347 30.0927 55.3163 30.9812 53.5875 30.9812C52.7479 30.9812 51.8189 30.754 51.1052 30.3739L50.9636 30.2985L51.1922 29.7142L51.3528 29.3141C51.5274 28.8805 51.7804 28.7724 52.2111 28.9029C52.5409 29.0228 53.034 29.1553 53.5757 29.1553C54.6906 29.1553 55.3056 28.6291 55.3057 27.6748V27.4755L55.1491 27.5938C54.7443 27.9014 54.2337 28.0526 53.5875 28.0526C51.6958 28.0526 50.3736 26.5668 50.3735 24.4406C50.3735 22.3115 51.6515 20.8809 53.5496 20.8809ZM53.8415 22.6782C52.5444 22.6782 52.4429 23.9853 52.4429 24.3866C52.4429 25.2971 52.838 26.2686 53.9475 26.2688C54.5842 26.2688 55.3444 25.9542 55.3444 24.4541C55.3444 22.8636 54.486 22.6782 53.8415 22.6782Z" fill="#101010"/>
<path d="M64.701 20.9199C65.749 20.9199 67.3064 21.3655 67.3067 22.5941V23.5261L66.2451 23.5253C66.1562 23.5253 65.7031 23.4984 65.5537 22.999L65.5442 22.9617C65.4793 22.7414 65.0653 22.61 64.701 22.61C63.5791 22.61 62.7953 23.4406 62.7953 24.628C62.7955 26.0032 63.8065 26.619 64.807 26.619C65.9002 26.6189 66.732 25.7446 66.745 25.7299L66.8558 25.6116L67.6967 27.0112L67.6405 27.0803C67.6251 27.0997 66.5789 28.3624 64.6598 28.3624C62.4419 28.3623 60.8335 26.7981 60.8335 24.6423C60.8337 22.4859 62.4597 20.9199 64.701 20.9199Z" fill="#101010"/>
<path fill-rule="evenodd" clip-rule="evenodd" d="M20.1022 20.9126C22.2631 20.9127 23.8319 22.4691 23.832 24.6128C23.832 26.7567 22.2632 28.3138 20.1022 28.3138C17.9493 28.3138 16.3867 26.7568 16.3867 24.6128C16.3868 22.469 17.9494 20.9126 20.1022 20.9126ZM20.1022 22.644C19.0847 22.644 18.3771 23.4542 18.377 24.6128C18.377 25.7719 19.0846 26.5832 20.1022 26.5832C21.1405 26.5831 21.841 25.7902 21.841 24.6128C21.8408 23.4543 21.1256 22.6441 20.1022 22.644Z" fill="#101010"/>
<path fill-rule="evenodd" clip-rule="evenodd" d="M28.0746 20.9126C30.2333 20.9126 31.8051 22.469 31.8052 24.6128C31.8052 26.7568 30.2334 28.3138 28.0746 28.3138C25.9197 28.3137 24.3567 26.7567 24.3567 24.6128C24.3568 22.4691 25.9198 20.9127 28.0746 20.9126ZM28.0746 22.644C27.0573 22.6442 26.3487 23.4543 26.3486 24.6128C26.3486 25.7718 27.0572 26.5831 28.0746 26.5832C29.1131 26.5832 29.8133 25.7902 29.8133 24.6128C29.8132 23.4542 29.0959 22.644 28.0746 22.644Z" fill="#101010"/>
<path fill-rule="evenodd" clip-rule="evenodd" d="M71.5846 20.9126C73.7436 20.9126 75.3152 22.4696 75.3152 24.6136C75.315 26.7574 73.7435 28.3138 71.5846 28.3138C69.43 28.3138 67.8676 26.7574 67.8674 24.6136C67.8674 22.4696 69.4299 20.9126 71.5846 20.9126ZM71.5846 22.644C70.5674 22.644 69.8585 23.4549 69.8585 24.6136C69.8586 25.7725 70.5675 26.5832 71.5846 26.5832C72.6231 26.5832 73.3232 25.7908 73.3233 24.6136C73.3233 23.4549 72.6061 22.644 71.5846 22.644Z" fill="#101010"/>
<path d="M59.3179 25.9077C59.9705 25.9079 60.5005 26.4402 60.5005 27.0977C60.5003 27.7533 59.9704 28.286 59.3179 28.2861C58.6673 28.2861 58.1386 27.7534 58.1384 27.0977C58.1384 26.4401 58.6672 25.9077 59.3179 25.9077Z" fill="#101010"/>
<path d="M33.4957 18.3105C34.0579 18.3106 34.5778 18.4249 34.5778 19.2632V23.4548H34.9037C35.1477 23.4547 35.311 23.3949 35.3918 23.2762L36.8197 21.0589H39.1256L37.2255 23.893C37.1281 24.0366 37.0276 24.1608 36.9288 24.2653L36.86 24.3312L36.9249 24.4003C37.0271 24.5065 37.1236 24.6408 37.2073 24.7988L37.9801 26.2682L39.1469 28.2053H37.5807C36.9902 28.2053 36.6765 28.106 36.3616 27.5265L35.2344 25.391C35.1616 25.264 35.0023 25.237 34.7693 25.237H34.5778V28.2053H32.5346L32.533 18.3105H33.4957Z" fill="#101010"/>
<path d="M40.7005 21.0586C41.4205 21.0586 41.7699 21.413 41.7699 22.1438L41.7652 28.201H41.762V28.2034H41.2858L40.808 28.205C40.7952 28.205 40.7845 28.2034 40.7716 28.2034H39.7449L39.7457 26.5839L39.7385 21.0586H40.7005Z" fill="#101010"/>
<path d="M47.1276 20.897C48.789 20.897 49.6677 21.8514 49.6677 23.6573L49.6708 28.2022H48.705C47.967 28.2022 47.626 27.8562 47.626 27.1162V24.0034C47.626 23.1364 47.3782 22.8008 46.7448 22.8007C45.9572 22.8007 45.3271 23.2804 45.101 24.0519C45.0162 24.3068 44.9744 24.5865 44.9744 24.9084V28.2022H42.9446L42.9382 21.0558H43.8543C44.4081 21.0558 44.7766 21.287 44.8858 21.7068L44.9293 21.8783L45.0535 21.752C45.4252 21.3602 46.0884 20.8971 47.1276 20.897Z" fill="#101010"/>
<path d="M84.3822 20.9199C85.9493 20.9199 86.7457 21.8412 86.7458 23.6563L86.7442 28.2012H85.8314C85.1155 28.2012 84.7951 27.8797 84.7951 27.1604V23.981C84.7951 23.0701 84.5742 22.7307 83.9779 22.7307C83.1527 22.7307 82.6222 23.4745 82.4655 24.1993C82.3882 24.4576 82.3563 24.7152 82.3563 25.0591V28.2012H80.404V23.981C80.4039 23.1915 80.1462 22.783 79.6193 22.7323C78.7641 22.6505 78.2556 23.467 78.0704 24.2263C78.0011 24.5111 77.9676 24.7839 77.9676 25.0591V28.2012H76.0295L76.0374 21.0826H76.8901C77.4223 21.0826 77.7742 21.3005 77.8813 21.6963L77.9549 21.9717L78.1471 21.7621C78.4409 21.4481 79.0739 20.9199 80.0179 20.9199C80.9176 20.9199 81.564 21.2695 81.9402 21.9574L82.0557 22.1662L82.2028 21.9797C82.7255 21.3159 83.5401 20.9199 84.3822 20.9199Z" fill="#101010"/>
<path fill-rule="evenodd" clip-rule="evenodd" d="M10.2411 18.3143H12.3643C14.2243 18.3144 15.4262 19.3181 15.4264 20.8729C15.4264 21.8894 14.9181 22.4784 14.6148 22.7401L14.3538 22.9632L14.6528 23.1323C15.3779 23.5419 15.8085 24.3472 15.8085 25.2892C15.8085 27.0389 14.4741 28.1684 12.4062 28.1686L9.9785 28.1693C9.9785 28.1693 9.9769 28.1691 9.9745 28.1686H9V19.3415C9.0062 18.7845 9.4475 18.3338 9.9991 18.3135L10.2411 18.3143ZM11.4158 23.8221C11.054 23.8729 10.8898 24.0939 10.8898 24.5176V26.4998L12.5423 26.5014C13.3594 26.5008 13.8667 26.0003 13.8673 25.155C13.8667 24.3316 13.3465 23.8221 12.5423 23.8221H11.4158ZM11.5052 19.9298C11.0827 19.9577 10.8898 20.1749 10.8898 20.6316V22.2979H12.3769C13.2124 22.2979 13.5097 21.6492 13.5097 21.0936C13.5096 20.3653 13.0758 19.9299 12.3508 19.9298H11.5052Z" fill="#101010"/>
<path d="M40.6736 18C41.3264 18 41.8569 18.532 41.857 19.1892C41.857 19.8456 41.3265 20.3776 40.6736 20.3776C40.0229 20.3776 39.4941 19.8456 39.4941 19.1892C39.4942 18.532 40.0229 18.0001 40.6736 18Z" fill="#101010"/>
</g>
<defs>
<clipPath id="clip0_51_35">
<rect width="96" height="48" fill="white"/>
</clipPath>
</defs>
</svg>
